<mxfile host="app.diagrams.net" agent="Mozilla/5.0 (Windows NT 10.0; Win64; x64) AppleWebKit/537.36 (KHTML, like Gecko) Chrome/134.0.0.0 Safari/537.36 Edg/134.0.0.0" version="26.2.1">
  <diagram name="Page-1" id="QC1i9PMjAWbj2fVqqmgI">
    <mxGraphModel dx="334" dy="1620" grid="1" gridSize="10" guides="1" tooltips="1" connect="1" arrows="1" fold="1" page="1" pageScale="1" pageWidth="850" pageHeight="1100" math="0" shadow="0">
      <root>
        <mxCell id="0" />
        <mxCell id="1" parent="0" />
        <mxCell id="OHjYDddzfUP40oInwv-a-1" value="" style="rounded=1;whiteSpace=wrap;html=1;" vertex="1" parent="1">
          <mxGeometry x="40" y="2" width="90" height="158" as="geometry" />
        </mxCell>
        <mxCell id="OHjYDddzfUP40oInwv-a-2" value="&lt;span style=&quot;font-size: 4px;&quot;&gt;workout page with all the workout listed&lt;/span&gt;" style="text;html=1;align=center;verticalAlign=middle;resizable=0;points=[];autosize=1;strokeColor=none;fillColor=none;" vertex="1" parent="1">
          <mxGeometry x="40" y="-20" width="90" height="30" as="geometry" />
        </mxCell>
        <mxCell id="OHjYDddzfUP40oInwv-a-7" value="&lt;div&gt;&lt;font style=&quot;font-size: 10px;&quot;&gt;Back Day&lt;/font&gt;&lt;/div&gt;&lt;div&gt;&lt;br&gt;&lt;/div&gt;" style="rounded=0;whiteSpace=wrap;html=1;" vertex="1" parent="1">
          <mxGeometry x="50" y="80" width="70" height="32" as="geometry" />
        </mxCell>
        <mxCell id="OHjYDddzfUP40oInwv-a-8" value="&lt;font style=&quot;font-size: 9px;&quot;&gt;view&lt;/font&gt;" style="rounded=1;whiteSpace=wrap;html=1;" vertex="1" parent="1">
          <mxGeometry x="50" y="102" width="30" height="10" as="geometry" />
        </mxCell>
        <mxCell id="OHjYDddzfUP40oInwv-a-9" value="&lt;font style=&quot;font-size: 9px;&quot;&gt;start&lt;/font&gt;" style="rounded=1;whiteSpace=wrap;html=1;" vertex="1" parent="1">
          <mxGeometry x="90" y="102" width="30" height="10" as="geometry" />
        </mxCell>
        <mxCell id="OHjYDddzfUP40oInwv-a-10" value="&lt;font style=&quot;font-size: 10px;&quot;&gt;Shoulder Day&lt;/font&gt;&lt;div&gt;&lt;font style=&quot;font-size: 10px;&quot;&gt;&lt;br&gt;&lt;/font&gt;&lt;/div&gt;" style="rounded=0;whiteSpace=wrap;html=1;" vertex="1" parent="1">
          <mxGeometry x="50" y="120" width="70" height="32" as="geometry" />
        </mxCell>
        <mxCell id="OHjYDddzfUP40oInwv-a-11" value="&lt;font style=&quot;font-size: 9px;&quot;&gt;view&lt;/font&gt;" style="rounded=1;whiteSpace=wrap;html=1;" vertex="1" parent="1">
          <mxGeometry x="50" y="142" width="30" height="10" as="geometry" />
        </mxCell>
        <mxCell id="OHjYDddzfUP40oInwv-a-12" value="&lt;font style=&quot;font-size: 9px;&quot;&gt;start&lt;/font&gt;" style="rounded=1;whiteSpace=wrap;html=1;" vertex="1" parent="1">
          <mxGeometry x="90" y="142" width="30" height="10" as="geometry" />
        </mxCell>
        <mxCell id="OHjYDddzfUP40oInwv-a-13" value="&lt;font style=&quot;font-size: 6px;&quot;&gt;Create workout&lt;/font&gt;" style="rounded=0;whiteSpace=wrap;html=1;" vertex="1" parent="1">
          <mxGeometry x="50" y="40" width="70" height="10" as="geometry" />
        </mxCell>
        <mxCell id="OHjYDddzfUP40oInwv-a-15" value="&lt;font style=&quot;font-size: 6px;&quot;&gt;Search&lt;/font&gt;" style="rounded=0;whiteSpace=wrap;html=1;" vertex="1" parent="1">
          <mxGeometry x="50" y="20" width="70" height="10" as="geometry" />
        </mxCell>
        <mxCell id="OHjYDddzfUP40oInwv-a-18" value="" style="rounded=0;whiteSpace=wrap;html=1;" vertex="1" parent="1">
          <mxGeometry x="50" y="60" width="70" height="10" as="geometry" />
        </mxCell>
        <mxCell id="OHjYDddzfUP40oInwv-a-19" value="&lt;font style=&quot;font-size: 4px;&quot;&gt;workout plan&lt;/font&gt;" style="rounded=0;whiteSpace=wrap;html=1;" vertex="1" parent="1">
          <mxGeometry x="50" y="60" width="30" height="10" as="geometry" />
        </mxCell>
        <mxCell id="OHjYDddzfUP40oInwv-a-22" value="&lt;font style=&quot;font-size: 4px;&quot;&gt;workout history&lt;/font&gt;" style="rounded=0;whiteSpace=wrap;html=1;align=center;" vertex="1" parent="1">
          <mxGeometry x="90" y="60" width="30" height="10" as="geometry" />
        </mxCell>
        <mxCell id="OHjYDddzfUP40oInwv-a-24" value="&lt;span style=&quot;font-size: 6px;&quot;&gt;Work Management&lt;/span&gt;" style="text;html=1;align=center;verticalAlign=middle;whiteSpace=wrap;rounded=0;" vertex="1" parent="1">
          <mxGeometry x="55" y="-10" width="60" height="30" as="geometry" />
        </mxCell>
        <mxCell id="OHjYDddzfUP40oInwv-a-26" value="" style="rounded=1;whiteSpace=wrap;html=1;" vertex="1" parent="1">
          <mxGeometry x="140" y="2" width="90" height="158" as="geometry" />
        </mxCell>
        <mxCell id="OHjYDddzfUP40oInwv-a-28" value="&lt;span style=&quot;font-size: 6px;&quot;&gt;Create workout&lt;/span&gt;" style="text;html=1;align=center;verticalAlign=middle;whiteSpace=wrap;rounded=0;" vertex="1" parent="1">
          <mxGeometry x="155" y="-10" width="60" height="30" as="geometry" />
        </mxCell>
        <mxCell id="OHjYDddzfUP40oInwv-a-29" value="&lt;font style=&quot;font-size: 6px;&quot;&gt;Workout name(back day)&lt;/font&gt;" style="rounded=0;whiteSpace=wrap;html=1;" vertex="1" parent="1">
          <mxGeometry x="150" y="10" width="70" height="10" as="geometry" />
        </mxCell>
        <mxCell id="OHjYDddzfUP40oInwv-a-50" value="" style="rounded=1;whiteSpace=wrap;html=1;" vertex="1" parent="1">
          <mxGeometry x="145" y="40" width="80" height="50" as="geometry" />
        </mxCell>
        <mxCell id="OHjYDddzfUP40oInwv-a-51" value="&lt;font style=&quot;font-size: 7px;&quot;&gt;Lat Pulldown&lt;/font&gt;" style="rounded=0;whiteSpace=wrap;html=1;" vertex="1" parent="1">
          <mxGeometry x="150" y="50" width="50" height="10" as="geometry" />
        </mxCell>
        <mxCell id="OHjYDddzfUP40oInwv-a-52" value="&lt;span style=&quot;font-size: 6px;&quot;&gt;set/rep&lt;/span&gt;" style="rounded=0;whiteSpace=wrap;html=1;" vertex="1" parent="1">
          <mxGeometry x="150" y="70" width="20" height="10" as="geometry" />
        </mxCell>
        <mxCell id="OHjYDddzfUP40oInwv-a-53" value="&lt;span style=&quot;font-size: 6px;&quot;&gt;kg/lbs&lt;/span&gt;" style="rounded=0;whiteSpace=wrap;html=1;" vertex="1" parent="1">
          <mxGeometry x="175" y="70" width="20" height="10" as="geometry" />
        </mxCell>
        <mxCell id="OHjYDddzfUP40oInwv-a-54" value="&lt;span style=&quot;font-size: 6px;&quot;&gt;time&lt;/span&gt;" style="rounded=0;whiteSpace=wrap;html=1;" vertex="1" parent="1">
          <mxGeometry x="200" y="70" width="20" height="10" as="geometry" />
        </mxCell>
        <mxCell id="OHjYDddzfUP40oInwv-a-60" value="" style="rounded=1;whiteSpace=wrap;html=1;" vertex="1" parent="1">
          <mxGeometry x="145" y="92" width="80" height="50" as="geometry" />
        </mxCell>
        <mxCell id="OHjYDddzfUP40oInwv-a-61" value="&lt;font style=&quot;font-size: 7px;&quot;&gt;Barbell Row&lt;/font&gt;" style="rounded=0;whiteSpace=wrap;html=1;" vertex="1" parent="1">
          <mxGeometry x="150" y="102" width="50" height="10" as="geometry" />
        </mxCell>
        <mxCell id="OHjYDddzfUP40oInwv-a-62" value="&lt;span style=&quot;font-size: 6px;&quot;&gt;set/rep&lt;/span&gt;" style="rounded=0;whiteSpace=wrap;html=1;" vertex="1" parent="1">
          <mxGeometry x="150" y="122" width="20" height="10" as="geometry" />
        </mxCell>
        <mxCell id="OHjYDddzfUP40oInwv-a-63" value="&lt;span style=&quot;font-size: 6px;&quot;&gt;kg/lbs&lt;/span&gt;" style="rounded=0;whiteSpace=wrap;html=1;" vertex="1" parent="1">
          <mxGeometry x="175" y="122" width="20" height="10" as="geometry" />
        </mxCell>
        <mxCell id="OHjYDddzfUP40oInwv-a-64" value="&lt;span style=&quot;font-size: 6px;&quot;&gt;time&lt;/span&gt;" style="rounded=0;whiteSpace=wrap;html=1;" vertex="1" parent="1">
          <mxGeometry x="200" y="122" width="20" height="10" as="geometry" />
        </mxCell>
        <mxCell id="OHjYDddzfUP40oInwv-a-66" value="&lt;font style=&quot;font-size: 10px;&quot;&gt;Save&lt;/font&gt;" style="rounded=1;whiteSpace=wrap;html=1;" vertex="1" parent="1">
          <mxGeometry x="170" y="148" width="30" height="12" as="geometry" />
        </mxCell>
        <mxCell id="OHjYDddzfUP40oInwv-a-67" value="&lt;span style=&quot;font-size: 6px;&quot;&gt;Add exerices&lt;/span&gt;" style="rounded=0;whiteSpace=wrap;html=1;" vertex="1" parent="1">
          <mxGeometry x="160" y="20" width="50" height="10" as="geometry" />
        </mxCell>
        <mxCell id="OHjYDddzfUP40oInwv-a-70" value="" style="rounded=1;whiteSpace=wrap;html=1;" vertex="1" parent="1">
          <mxGeometry x="40" y="170" width="90" height="158" as="geometry" />
        </mxCell>
        <mxCell id="OHjYDddzfUP40oInwv-a-71" value="&lt;span style=&quot;font-size: 6px;&quot;&gt;View Workout&lt;/span&gt;" style="text;html=1;align=center;verticalAlign=middle;whiteSpace=wrap;rounded=0;" vertex="1" parent="1">
          <mxGeometry x="55" y="160" width="60" height="30" as="geometry" />
        </mxCell>
        <mxCell id="OHjYDddzfUP40oInwv-a-72" value="&lt;font style=&quot;font-size: 10px;&quot;&gt;Back Day&lt;/font&gt;" style="rounded=1;whiteSpace=wrap;html=1;" vertex="1" parent="1">
          <mxGeometry x="50" y="190" width="70" height="10" as="geometry" />
        </mxCell>
        <mxCell id="OHjYDddzfUP40oInwv-a-78" value="" style="rounded=1;whiteSpace=wrap;html=1;" vertex="1" parent="1">
          <mxGeometry x="45" y="208" width="80" height="52" as="geometry" />
        </mxCell>
        <mxCell id="OHjYDddzfUP40oInwv-a-79" value="&lt;font style=&quot;font-size: 7px;&quot;&gt;Lat Pulldown&lt;/font&gt;" style="rounded=1;whiteSpace=wrap;html=1;" vertex="1" parent="1">
          <mxGeometry x="50" y="210" width="70" height="14" as="geometry" />
        </mxCell>
        <mxCell id="OHjYDddzfUP40oInwv-a-80" value="&lt;font style=&quot;font-size: 10px;&quot;&gt;3x15&lt;/font&gt;" style="rounded=1;whiteSpace=wrap;html=1;" vertex="1" parent="1">
          <mxGeometry x="50" y="226" width="25" height="16" as="geometry" />
        </mxCell>
        <mxCell id="OHjYDddzfUP40oInwv-a-81" value="&lt;font style=&quot;font-size: 10px;&quot;&gt;70lbs&lt;/font&gt;" style="rounded=1;whiteSpace=wrap;html=1;" vertex="1" parent="1">
          <mxGeometry x="95" y="226" width="25" height="16" as="geometry" />
        </mxCell>
        <mxCell id="OHjYDddzfUP40oInwv-a-82" value="null" style="rounded=1;whiteSpace=wrap;html=1;" vertex="1" parent="1">
          <mxGeometry x="72.5" y="243" width="25" height="17" as="geometry" />
        </mxCell>
        <mxCell id="OHjYDddzfUP40oInwv-a-90" value="" style="rounded=1;whiteSpace=wrap;html=1;" vertex="1" parent="1">
          <mxGeometry x="45" y="262" width="80" height="52" as="geometry" />
        </mxCell>
        <mxCell id="OHjYDddzfUP40oInwv-a-91" value="&lt;font style=&quot;font-size: 7px;&quot;&gt;Barbell Row&lt;/font&gt;" style="rounded=1;whiteSpace=wrap;html=1;" vertex="1" parent="1">
          <mxGeometry x="50" y="264" width="70" height="14" as="geometry" />
        </mxCell>
        <mxCell id="OHjYDddzfUP40oInwv-a-92" value="&lt;font style=&quot;font-size: 10px;&quot;&gt;3x15&lt;/font&gt;" style="rounded=1;whiteSpace=wrap;html=1;" vertex="1" parent="1">
          <mxGeometry x="50" y="280" width="25" height="16" as="geometry" />
        </mxCell>
        <mxCell id="OHjYDddzfUP40oInwv-a-93" value="&lt;font style=&quot;font-size: 10px;&quot;&gt;10kg&lt;/font&gt;" style="rounded=1;whiteSpace=wrap;html=1;" vertex="1" parent="1">
          <mxGeometry x="95" y="280" width="25" height="16" as="geometry" />
        </mxCell>
        <mxCell id="OHjYDddzfUP40oInwv-a-94" value="null" style="rounded=1;whiteSpace=wrap;html=1;" vertex="1" parent="1">
          <mxGeometry x="72.5" y="297" width="25" height="16" as="geometry" />
        </mxCell>
        <mxCell id="OHjYDddzfUP40oInwv-a-97" value="" style="endArrow=classic;html=1;rounded=0;exitX=1;exitY=0.5;exitDx=0;exitDy=0;entryX=0.037;entryY=0.176;entryDx=0;entryDy=0;entryPerimeter=0;" edge="1" parent="1" source="OHjYDddzfUP40oInwv-a-13" target="OHjYDddzfUP40oInwv-a-26">
          <mxGeometry width="50" height="50" relative="1" as="geometry">
            <mxPoint x="110" y="140" as="sourcePoint" />
            <mxPoint x="160" y="90" as="targetPoint" />
          </mxGeometry>
        </mxCell>
        <mxCell id="OHjYDddzfUP40oInwv-a-99" value="" style="endArrow=classic;html=1;rounded=0;exitX=0.75;exitY=1;exitDx=0;exitDy=0;entryX=0.25;entryY=0;entryDx=0;entryDy=0;" edge="1" parent="1" source="OHjYDddzfUP40oInwv-a-11" target="OHjYDddzfUP40oInwv-a-70">
          <mxGeometry width="50" height="50" relative="1" as="geometry">
            <mxPoint x="80" y="180" as="sourcePoint" />
            <mxPoint x="130" y="130" as="targetPoint" />
          </mxGeometry>
        </mxCell>
        <mxCell id="OHjYDddzfUP40oInwv-a-100" value="" style="rounded=1;whiteSpace=wrap;html=1;" vertex="1" parent="1">
          <mxGeometry x="140" y="172.5" width="90" height="158" as="geometry" />
        </mxCell>
        <mxCell id="OHjYDddzfUP40oInwv-a-101" value="&lt;font style=&quot;font-size: 10px;&quot;&gt;Back Day&lt;/font&gt;" style="rounded=1;whiteSpace=wrap;html=1;" vertex="1" parent="1">
          <mxGeometry x="150" y="192.5" width="70" height="10" as="geometry" />
        </mxCell>
        <mxCell id="OHjYDddzfUP40oInwv-a-102" value="" style="rounded=1;whiteSpace=wrap;html=1;" vertex="1" parent="1">
          <mxGeometry x="145" y="208" width="80" height="50" as="geometry" />
        </mxCell>
        <mxCell id="OHjYDddzfUP40oInwv-a-103" value="&lt;font style=&quot;font-size: 7px;&quot;&gt;Lat Pulldown&lt;/font&gt;" style="rounded=1;whiteSpace=wrap;html=1;" vertex="1" parent="1">
          <mxGeometry x="150" y="210" width="70" height="14" as="geometry" />
        </mxCell>
        <mxCell id="OHjYDddzfUP40oInwv-a-104" value="&lt;font style=&quot;font-size: 10px;&quot;&gt;3x15&lt;/font&gt;" style="rounded=1;whiteSpace=wrap;html=1;" vertex="1" parent="1">
          <mxGeometry x="147.5" y="226" width="25" height="14" as="geometry" />
        </mxCell>
        <mxCell id="OHjYDddzfUP40oInwv-a-105" value="&lt;font style=&quot;font-size: 10px;&quot;&gt;70lbs&lt;/font&gt;" style="rounded=1;whiteSpace=wrap;html=1;" vertex="1" parent="1">
          <mxGeometry x="172.5" y="226" width="25" height="14" as="geometry" />
        </mxCell>
        <mxCell id="OHjYDddzfUP40oInwv-a-107" value="" style="rounded=1;whiteSpace=wrap;html=1;" vertex="1" parent="1">
          <mxGeometry x="145" y="264.5" width="80" height="52" as="geometry" />
        </mxCell>
        <mxCell id="OHjYDddzfUP40oInwv-a-108" value="&lt;span style=&quot;font-size: 7px;&quot;&gt;Weighted Planks&lt;/span&gt;" style="rounded=1;whiteSpace=wrap;html=1;" vertex="1" parent="1">
          <mxGeometry x="150" y="266.5" width="70" height="14" as="geometry" />
        </mxCell>
        <mxCell id="OHjYDddzfUP40oInwv-a-112" value="" style="endArrow=classic;html=1;rounded=0;entryX=0.213;entryY=0.005;entryDx=0;entryDy=0;entryPerimeter=0;exitX=0.75;exitY=1;exitDx=0;exitDy=0;" edge="1" parent="1" source="OHjYDddzfUP40oInwv-a-12" target="OHjYDddzfUP40oInwv-a-100">
          <mxGeometry width="50" height="50" relative="1" as="geometry">
            <mxPoint x="80" y="210" as="sourcePoint" />
            <mxPoint x="130" y="160" as="targetPoint" />
          </mxGeometry>
        </mxCell>
        <mxCell id="OHjYDddzfUP40oInwv-a-113" value="&lt;span style=&quot;font-size: 6px;&quot;&gt;Start workout&lt;/span&gt;" style="text;html=1;align=center;verticalAlign=middle;whiteSpace=wrap;rounded=0;" vertex="1" parent="1">
          <mxGeometry x="155" y="160" width="60" height="30" as="geometry" />
        </mxCell>
        <mxCell id="OHjYDddzfUP40oInwv-a-114" value="&lt;font style=&quot;font-size: 10px;&quot;&gt;Null&lt;/font&gt;" style="rounded=1;whiteSpace=wrap;html=1;" vertex="1" parent="1">
          <mxGeometry x="197.5" y="226" width="25" height="14" as="geometry" />
        </mxCell>
        <mxCell id="OHjYDddzfUP40oInwv-a-119" value="&lt;span style=&quot;font-size: 10px;&quot;&gt;Null&lt;/span&gt;" style="rounded=1;whiteSpace=wrap;html=1;" vertex="1" parent="1">
          <mxGeometry x="147.5" y="282.5" width="25" height="16" as="geometry" />
        </mxCell>
        <mxCell id="OHjYDddzfUP40oInwv-a-120" value="&lt;span style=&quot;font-size: 10px;&quot;&gt;10kg&lt;/span&gt;" style="rounded=1;whiteSpace=wrap;html=1;" vertex="1" parent="1">
          <mxGeometry x="172.5" y="282.5" width="25" height="16" as="geometry" />
        </mxCell>
        <mxCell id="OHjYDddzfUP40oInwv-a-121" value="&lt;span style=&quot;font-size: 10px;&quot;&gt;1Min&lt;/span&gt;" style="rounded=1;whiteSpace=wrap;html=1;" vertex="1" parent="1">
          <mxGeometry x="197.5" y="282.5" width="25" height="16" as="geometry" />
        </mxCell>
        <mxCell id="OHjYDddzfUP40oInwv-a-122" value="&lt;font style=&quot;font-size: 10px;&quot;&gt;Start&lt;/font&gt;" style="rounded=1;whiteSpace=wrap;html=1;" vertex="1" parent="1">
          <mxGeometry x="147.5" y="240" width="25" height="16" as="geometry" />
        </mxCell>
        <mxCell id="OHjYDddzfUP40oInwv-a-123" value="&lt;font style=&quot;font-size: 10px;&quot;&gt;End&lt;/font&gt;" style="rounded=1;whiteSpace=wrap;html=1;" vertex="1" parent="1">
          <mxGeometry x="172.5" y="240" width="25" height="16" as="geometry" />
        </mxCell>
        <mxCell id="OHjYDddzfUP40oInwv-a-125" value="&lt;font style=&quot;font-size: 10px;&quot;&gt;Done&lt;/font&gt;" style="rounded=1;whiteSpace=wrap;html=1;" vertex="1" parent="1">
          <mxGeometry x="197.5" y="240" width="25" height="16" as="geometry" />
        </mxCell>
        <mxCell id="OHjYDddzfUP40oInwv-a-126" value="&lt;font style=&quot;font-size: 10px;&quot;&gt;Start&lt;/font&gt;" style="rounded=1;whiteSpace=wrap;html=1;" vertex="1" parent="1">
          <mxGeometry x="147.5" y="298.5" width="25" height="16" as="geometry" />
        </mxCell>
        <mxCell id="OHjYDddzfUP40oInwv-a-127" value="&lt;font style=&quot;font-size: 10px;&quot;&gt;End&lt;/font&gt;" style="rounded=1;whiteSpace=wrap;html=1;" vertex="1" parent="1">
          <mxGeometry x="172.5" y="298.5" width="25" height="16" as="geometry" />
        </mxCell>
        <mxCell id="OHjYDddzfUP40oInwv-a-128" value="&lt;font style=&quot;font-size: 10px;&quot;&gt;Done&lt;/font&gt;" style="rounded=1;whiteSpace=wrap;html=1;" vertex="1" parent="1">
          <mxGeometry x="197.5" y="298.5" width="25" height="16" as="geometry" />
        </mxCell>
        <mxCell id="OHjYDddzfUP40oInwv-a-130" value="" style="rounded=1;whiteSpace=wrap;html=1;" vertex="1" parent="1">
          <mxGeometry x="240" y="266.5" width="80" height="73.5" as="geometry" />
        </mxCell>
        <mxCell id="OHjYDddzfUP40oInwv-a-131" value="&lt;font style=&quot;font-size: 7px;&quot;&gt;Weighted Planks&lt;/font&gt;" style="rounded=1;whiteSpace=wrap;html=1;" vertex="1" parent="1">
          <mxGeometry x="245" y="268.5" width="70" height="14" as="geometry" />
        </mxCell>
        <mxCell id="OHjYDddzfUP40oInwv-a-132" value="&lt;font style=&quot;font-size: 10px;&quot;&gt;Null&lt;/font&gt;" style="rounded=1;whiteSpace=wrap;html=1;" vertex="1" parent="1">
          <mxGeometry x="242.5" y="284.5" width="25" height="16" as="geometry" />
        </mxCell>
        <mxCell id="OHjYDddzfUP40oInwv-a-133" value="&lt;font style=&quot;font-size: 10px;&quot;&gt;10kg&lt;/font&gt;" style="rounded=1;whiteSpace=wrap;html=1;movable=0;resizable=0;rotatable=0;deletable=0;editable=0;locked=1;connectable=0;" vertex="1" parent="1">
          <mxGeometry x="267.5" y="284.5" width="25" height="16" as="geometry" />
        </mxCell>
        <mxCell id="OHjYDddzfUP40oInwv-a-134" value="&lt;span style=&quot;font-size: 10px;&quot;&gt;1Min&lt;/span&gt;" style="rounded=1;whiteSpace=wrap;html=1;movable=0;resizable=0;rotatable=0;deletable=0;editable=0;locked=1;connectable=0;" vertex="1" parent="1">
          <mxGeometry x="292.5" y="284.5" width="25" height="16" as="geometry" />
        </mxCell>
        <mxCell id="OHjYDddzfUP40oInwv-a-135" value="&lt;font style=&quot;font-size: 10px;&quot;&gt;Start&lt;/font&gt;" style="rounded=1;whiteSpace=wrap;html=1;" vertex="1" parent="1">
          <mxGeometry x="242.5" y="300.5" width="25" height="16" as="geometry" />
        </mxCell>
        <mxCell id="OHjYDddzfUP40oInwv-a-136" value="&lt;font style=&quot;font-size: 10px;&quot;&gt;End&lt;/font&gt;" style="rounded=1;whiteSpace=wrap;html=1;movable=0;resizable=0;rotatable=0;deletable=0;editable=0;locked=1;connectable=0;" vertex="1" parent="1">
          <mxGeometry x="267.5" y="300.5" width="25" height="16" as="geometry" />
        </mxCell>
        <mxCell id="OHjYDddzfUP40oInwv-a-137" value="&lt;font style=&quot;font-size: 10px;&quot;&gt;Done&lt;/font&gt;" style="rounded=1;whiteSpace=wrap;html=1;movable=0;resizable=0;rotatable=0;deletable=0;editable=0;locked=1;connectable=0;" vertex="1" parent="1">
          <mxGeometry x="292.5" y="300.5" width="25" height="16" as="geometry" />
        </mxCell>
        <mxCell id="OHjYDddzfUP40oInwv-a-138" value="00 : 60" style="rounded=1;whiteSpace=wrap;html=1;" vertex="1" parent="1">
          <mxGeometry x="245" y="316.5" width="70" height="20" as="geometry" />
        </mxCell>
      </root>
    </mxGraphModel>
  </diagram>
</mxfile>
